<svg width="8" height="32" viewBox="0 0 8 32" fill="none" xmlns="http://www.w3.org/2000/svg" xmlns:xlink="http://www.w3.org/1999/xlink">
<path d="M3.5,5L3.5,6.5L3.5,5ZM3.5,2L3.5,0.5L3.5,2ZM3.5,3.5L3.5,3.5L1.379,5.621C1.941,6.184 2.704,6.5 3.5,6.5L3.5,3.5ZM3.5,3.5L3.5,3.5L0.5,3.5C0.5,4.296 0.816,5.059 1.379,5.621L3.5,3.5ZM3.5,3.5L3.5,3.5L1.379,1.379C0.816,1.941 0.5,2.704 0.5,3.5L3.5,3.5ZM3.5,3.5L3.5,3.5L3.5,0.5C2.704,0.5 1.941,0.816 1.379,1.379L3.5,3.5ZM3.5,3.5L3.5,3.5L5.621,1.379C5.059,0.816 4.296,0.5 3.5,0.5L3.5,3.5ZM3.5,3.5L3.5,3.5L6.5,3.5C6.5,2.704 6.184,1.941 5.621,1.379L3.5,3.5ZM3.5,3.5L3.5,3.5L5.621,5.621C6.184,5.059 6.5,4.296 6.5,3.5L3.5,3.5ZM3.5,3.5L3.5,3.5L3.5,6.5C4.296,6.5 5.059,6.184 5.621,5.621L3.5,3.5ZM3.5,15.5L3.5,15.5L1.379,17.621C1.941,18.184 2.704,18.5 3.5,18.5L3.5,15.5ZM3.5,15.5L3.5,15.5L0.5,15.5C0.5,16.296 0.816,17.059 1.379,17.621L3.5,15.5ZM3.5,15.5L3.5,15.5L1.379,13.379C0.816,13.941 0.5,14.704 0.5,15.5L3.5,15.5ZM3.5,15.5L3.5,15.5L3.5,12.5C2.704,12.5 1.941,12.816 1.379,13.379L3.5,15.5ZM3.5,15.5L3.5,15.5L5.621,13.379C5.059,12.816 4.296,12.5 3.5,12.5L3.5,15.5ZM3.5,15.5L3.5,15.5L6.5,15.5C6.5,14.704 6.184,13.941 5.621,13.379L3.5,15.5ZM3.5,15.5L3.5,15.5L5.621,17.621C6.184,17.059 6.5,16.296 6.5,15.5L3.5,15.5ZM3.5,15.5L3.5,15.5L3.5,18.5C4.296,18.5 5.059,18.184 5.621,17.621L3.5,15.5ZM3.5,27.5L3.5,27.5L1.379,29.621C1.941,30.184 2.704,30.5 3.5,30.5L3.5,27.5ZM3.5,27.5L3.5,27.5L0.5,27.5C0.5,28.296 0.816,29.059 1.379,29.621L3.5,27.5ZM3.5,27.5L3.5,27.5L1.379,25.379C0.816,25.941 0.5,26.704 0.5,27.5L3.5,27.5ZM3.5,27.5L3.5,27.5L3.5,24.5C2.704,24.5 1.941,24.816 1.379,25.379L3.5,27.5ZM3.5,27.5L3.5,27.5L5.621,25.379C5.059,24.816 4.296,24.5 3.5,24.5L3.5,27.5ZM3.5,27.5L3.5,27.5L6.5,27.5C6.5,26.704 6.184,25.941 5.621,25.379L3.5,27.5ZM3.5,27.5L3.5,27.5L5.621,29.621C6.184,29.059 6.5,28.296 6.5,27.5L3.5,27.5ZM3.5,27.5L3.5,27.5L3.5,30.5C4.296,30.5 5.059,30.184 5.621,29.621L3.5,27.5Z" fill="#000000"/>
</svg>
