<svg width="38" height="26" viewBox="0 0 38 26" fill="none" xmlns="http://www.w3.org/2000/svg" xmlns:xlink="http://www.w3.org/1999/xlink">
<path d="M11.75,1.25C10.922,1.25 10.25,1.922 10.25,2.75C10.25,3.578 10.922,4.25 11.75,4.25L11.75,1.25ZM35.75,4.25C36.578,4.25 37.25,3.578 37.25,2.75C37.25,1.922 36.578,1.25 35.75,1.25L35.75,4.25ZM11.75,11.75C10.922,11.75 10.25,12.422 10.25,13.25C10.25,14.078 10.922,14.75 11.75,14.75L11.75,11.75ZM35.75,14.75C36.578,14.75 37.25,14.078 37.25,13.25C37.25,12.422 36.578,11.75 35.75,11.75L35.75,14.75ZM11.75,22.25C10.922,22.25 10.25,22.922 10.25,23.75C10.25,24.578 10.922,25.25 11.75,25.25L11.75,22.25ZM35.75,25.25C36.578,25.25 37.25,24.578 37.25,23.75C37.25,22.922 36.578,22.25 35.75,22.25L35.75,25.25ZM2.75,2.75L2.75,1.25C1.922,1.25 1.25,1.922 1.25,2.75L2.75,2.75ZM2.764,2.75L4.264,2.75C4.264,1.922 3.592,1.25 2.764,1.25L2.764,2.75ZM2.764,2.766L2.764,4.266C3.592,4.266 4.264,3.594 4.264,2.766L2.764,2.766ZM2.75,2.766L1.25,2.766C1.25,3.594 1.922,4.266 2.75,4.266L2.75,2.766ZM2,2.75L0.5,2.75L2,2.75ZM2.75,13.25L2.75,11.75C1.922,11.75 1.25,12.422 1.25,13.25L2.75,13.25ZM2.764,13.25L4.264,13.25C4.264,12.422 3.592,11.75 2.764,11.75L2.764,13.25ZM2.764,13.266L2.764,14.766C3.592,14.766 4.264,14.094 4.264,13.266L2.764,13.266ZM2.75,13.266L1.25,13.266C1.25,14.094 1.922,14.766 2.75,14.766L2.75,13.266ZM2,13.25L0.5,13.25L2,13.25ZM2.75,23.75L2.75,22.25C1.922,22.25 1.25,22.922 1.25,23.75L2.75,23.75ZM2.764,23.75L4.264,23.75C4.264,22.922 3.592,22.25 2.764,22.25L2.764,23.75ZM2.764,23.766L2.764,25.266C3.592,25.266 4.264,24.594 4.264,23.766L2.764,23.766ZM2.75,23.766L1.25,23.766C1.25,24.594 1.922,25.266 2.75,25.266L2.75,23.766ZM2,23.75L0.5,23.75L2,23.75ZM11.75,4.25L35.75,4.25L35.75,1.25L11.75,1.25L11.75,4.25ZM11.75,14.75L35.75,14.75L35.75,11.75L11.75,11.75L11.75,14.75ZM11.75,25.25L35.75,25.25L35.75,22.25L11.75,22.25L11.75,25.25ZM2.75,4.25L2.764,4.25L2.764,1.25L2.75,1.25L2.75,4.25ZM1.264,2.75L1.264,2.766L4.264,2.766L4.264,2.75L1.264,2.75ZM2.764,1.266L2.75,1.266L2.75,4.266L2.764,4.266L2.764,1.266ZM4.25,2.766L4.25,2.75L1.25,2.75L1.25,2.766L4.25,2.766ZM2,2.75C2,2.551 2.079,2.36 2.22,2.22L4.341,4.341C4.763,3.919 5,3.347 5,2.75L2,2.75ZM2.22,2.22C2.36,2.079 2.551,2 2.75,2L2.75,5C3.347,5 3.919,4.763 4.341,4.341L2.22,2.22ZM2.75,2C2.949,2 3.14,2.079 3.28,2.22L1.159,4.341C1.581,4.763 2.153,5 2.75,5L2.75,2ZM3.28,2.22C3.421,2.36 3.5,2.551 3.5,2.75L0.5,2.75C0.5,3.347 0.737,3.919 1.159,4.341L3.28,2.22ZM3.5,2.75C3.5,2.949 3.421,3.14 3.28,3.28L1.159,1.159C0.737,1.581 0.5,2.153 0.5,2.75L3.5,2.75ZM3.28,3.28C3.14,3.421 2.949,3.5 2.75,3.5L2.75,0.5C2.153,0.5 1.581,0.737 1.159,1.159L3.28,3.28ZM2.75,3.5C2.551,3.5 2.36,3.421 2.22,3.28L4.341,1.159C3.919,0.737 3.347,0.5 2.75,0.5L2.75,3.5ZM2.22,3.28C2.079,3.14 2,2.949 2,2.75L5,2.75C5,2.153 4.763,1.581 4.341,1.159L2.22,3.28ZM2.75,14.75L2.764,14.75L2.764,11.75L2.75,11.75L2.75,14.75ZM1.264,13.25L1.264,13.266L4.264,13.266L4.264,13.25L1.264,13.25ZM2.764,11.766L2.75,11.766L2.75,14.766L2.764,14.766L2.764,11.766ZM4.25,13.266L4.25,13.25L1.25,13.25L1.25,13.266L4.25,13.266ZM2,13.25C2,13.051 2.079,12.86 2.22,12.72L4.341,14.841C4.763,14.419 5,13.847 5,13.25L2,13.25ZM2.22,12.72C2.36,12.579 2.551,12.5 2.75,12.5L2.75,15.5C3.347,15.5 3.919,15.263 4.341,14.841L2.22,12.72ZM2.75,12.5C2.949,12.5 3.14,12.579 3.28,12.72L1.159,14.841C1.581,15.263 2.153,15.5 2.75,15.5L2.75,12.5ZM3.28,12.72C3.421,12.86 3.5,13.051 3.5,13.25L0.5,13.25C0.5,13.847 0.737,14.419 1.159,14.841L3.28,12.72ZM3.5,13.25C3.5,13.449 3.421,13.64 3.28,13.78L1.159,11.659C0.737,12.081 0.5,12.653 0.5,13.25L3.5,13.25ZM3.28,13.78C3.14,13.921 2.949,14 2.75,14L2.75,11C2.153,11 1.581,11.237 1.159,11.659L3.28,13.78ZM2.75,14C2.551,14 2.36,13.921 2.22,13.78L4.341,11.659C3.919,11.237 3.347,11 2.75,11L2.75,14ZM2.22,13.78C2.079,13.64 2,13.449 2,13.25L5,13.25C5,12.653 4.763,12.081 4.341,11.659L2.22,13.78ZM2.75,25.25L2.764,25.25L2.764,22.25L2.75,22.25L2.75,25.25ZM1.264,23.75L1.264,23.766L4.264,23.766L4.264,23.75L1.264,23.75ZM2.764,22.266L2.75,22.266L2.75,25.266L2.764,25.266L2.764,22.266ZM4.25,23.766L4.25,23.75L1.25,23.75L1.25,23.766L4.25,23.766ZM2,23.75C2,23.551 2.079,23.36 2.22,23.22L4.341,25.341C4.763,24.919 5,24.347 5,23.75L2,23.75ZM2.22,23.22C2.36,23.079 2.551,23 2.75,23L2.75,26C3.347,26 3.919,25.763 4.341,25.341L2.22,23.22ZM2.75,23C2.949,23 3.14,23.079 3.28,23.22L1.159,25.341C1.581,25.763 2.153,26 2.75,26L2.75,23ZM3.28,23.22C3.421,23.36 3.5,23.551 3.5,23.75L0.5,23.75C0.5,24.347 0.737,24.919 1.159,25.341L3.28,23.22ZM3.5,23.75C3.5,23.949 3.421,24.14 3.28,24.28L1.159,22.159C0.737,22.581 0.5,23.153 0.5,23.75L3.5,23.75ZM3.28,24.28C3.14,24.421 2.949,24.5 2.75,24.5L2.75,21.5C2.153,21.5 1.581,21.737 1.159,22.159L3.28,24.28ZM2.75,24.5C2.551,24.5 2.36,24.421 2.22,24.28L4.341,22.159C3.919,21.737 3.347,21.5 2.75,21.5L2.75,24.5ZM2.22,24.28C2.079,24.14 2,23.949 2,23.75L5,23.75C5,23.153 4.763,22.581 4.341,22.159L2.22,24.28Z" fill="#000000"/>
</svg>
