<svg width="28" height="28" viewBox="0 0 28 28" fill="none" xmlns="http://www.w3.org/2000/svg" xmlns:xlink="http://www.w3.org/1999/xlink">
<path d="M17.181,20.817C17.766,21.403 18.715,21.404 19.302,20.819C19.889,20.234 19.89,19.285 19.305,18.698L17.181,20.817ZM14.021,18L14.014,19.5L14.018,19.5L14.021,18ZM8.695,18.698C8.11,19.285 8.111,20.234 8.698,20.819C9.285,21.404 10.234,21.403 10.819,20.817L8.695,18.698ZM26,14L24.5,14L26,14ZM14,2L14,3.5L14,2ZM10.5,11L10.5,9.5C9.672,9.5 9,10.172 9,11L10.5,11ZM10.511,11L12.011,11C12.011,10.172 11.339,9.5 10.511,9.5L10.511,11ZM10.511,11.02L10.511,12.52C11.339,12.52 12.011,11.848 12.011,11.02L10.511,11.02ZM10.5,11.02L9,11.02C9,11.848 9.672,12.52 10.5,12.52L10.5,11.02ZM17.5,11L17.5,9.5C16.672,9.5 16,10.172 16,11L17.5,11ZM17.511,11L19.011,11C19.011,10.172 18.339,9.5 17.511,9.5L17.511,11ZM17.511,11.02L17.511,12.52C18.339,12.52 19.011,11.848 19.011,11.02L17.511,11.02ZM17.5,11.02L16,11.02C16,11.848 16.672,12.52 17.5,12.52L17.5,11.02ZM19.305,18.698C17.905,17.295 16.006,16.505 14.025,16.5L14.018,19.5C15.205,19.503 16.342,19.976 17.181,20.817L19.305,18.698ZM14.029,16.5C13.038,16.495 12.057,16.687 11.142,17.064L12.285,19.838C12.833,19.612 13.421,19.497 14.014,19.5L14.029,16.5ZM11.142,17.064C10.226,17.442 9.395,17.997 8.695,18.698L10.819,20.817C11.238,20.397 11.736,20.064 12.285,19.838L11.142,17.064ZM24.5,14C24.5,15.379 24.228,16.744 23.701,18.018L26.472,19.166C27.151,17.528 27.5,15.773 27.5,14L24.5,14ZM23.701,18.018C23.173,19.292 22.4,20.45 21.425,21.425L23.546,23.546C24.8,22.292 25.794,20.804 26.472,19.166L23.701,18.018ZM21.425,21.425C20.45,22.4 19.292,23.173 18.018,23.701L19.166,26.472C20.804,25.794 22.292,24.8 23.546,23.546L21.425,21.425ZM18.018,23.701C16.744,24.228 15.379,24.5 14,24.5L14,27.5C15.773,27.5 17.528,27.151 19.166,26.472L18.018,23.701ZM14,24.5C12.621,24.5 11.256,24.228 9.982,23.701L8.834,26.472C10.472,27.151 12.227,27.5 14,27.5L14,24.5ZM9.982,23.701C8.708,23.173 7.55,22.4 6.575,21.425L4.454,23.546C5.708,24.8 7.196,25.794 8.834,26.472L9.982,23.701ZM6.575,21.425C5.6,20.45 4.827,19.292 4.299,18.018L1.528,19.166C2.206,20.804 3.2,22.292 4.454,23.546L6.575,21.425ZM4.299,18.018C3.772,16.744 3.5,15.379 3.5,14L0.5,14C0.5,15.773 0.849,17.528 1.528,19.166L4.299,18.018ZM3.5,14C3.5,11.215 4.606,8.545 6.575,6.575L4.454,4.454C1.922,6.986 0.5,10.42 0.5,14L3.5,14ZM6.575,6.575C8.545,4.606 11.215,3.5 14,3.5L14,0.5C10.42,0.5 6.986,1.922 4.454,4.454L6.575,6.575ZM14,3.5C16.785,3.5 19.455,4.606 21.425,6.575L23.546,4.454C21.014,1.922 17.58,0.5 14,0.5L14,3.5ZM21.425,6.575C23.394,8.545 24.5,11.215 24.5,14L27.5,14C27.5,10.42 26.078,6.986 23.546,4.454L21.425,6.575ZM9.5,11C9.5,11.093 9.478,11.104 9.512,11.036C9.529,11.002 9.588,10.893 9.725,10.776C9.872,10.652 10.138,10.5 10.5,10.5L10.5,13.5C11.513,13.5 12.025,12.718 12.195,12.378C12.41,11.948 12.5,11.459 12.5,11L9.5,11ZM10.5,10.5C10.862,10.5 11.128,10.652 11.275,10.776C11.412,10.893 11.471,11.002 11.488,11.036C11.522,11.104 11.5,11.093 11.5,11L8.5,11C8.5,11.459 8.59,11.948 8.805,12.378C8.975,12.718 9.487,13.5 10.5,13.5L10.5,10.5ZM11.5,11C11.5,10.907 11.522,10.896 11.488,10.964C11.471,10.998 11.412,11.107 11.275,11.224C11.128,11.348 10.862,11.5 10.5,11.5L10.5,8.5C9.487,8.5 8.975,9.282 8.805,9.622C8.59,10.052 8.5,10.541 8.5,11L11.5,11ZM10.5,11.5C10.138,11.5 9.872,11.348 9.725,11.224C9.588,11.107 9.529,10.998 9.512,10.964C9.478,10.896 9.5,10.907 9.5,11L12.5,11C12.5,10.541 12.41,10.052 12.195,9.622C12.025,9.282 11.513,8.5 10.5,8.5L10.5,11.5ZM10.5,12.5L10.511,12.5L10.511,9.5L10.5,9.5L10.5,12.5ZM9.011,11L9.011,11.02L12.011,11.02L12.011,11L9.011,11ZM10.511,9.52L10.5,9.52L10.5,12.52L10.511,12.52L10.511,9.52ZM12,11.02L12,11L9,11L9,11.02L12,11.02ZM16.5,11C16.5,11.093 16.478,11.104 16.512,11.036C16.529,11.002 16.588,10.893 16.725,10.776C16.872,10.652 17.138,10.5 17.5,10.5L17.5,13.5C18.513,13.5 19.025,12.718 19.195,12.378C19.41,11.948 19.5,11.459 19.5,11L16.5,11ZM17.5,10.5C17.862,10.5 18.128,10.652 18.275,10.776C18.412,10.893 18.471,11.002 18.488,11.036C18.522,11.104 18.5,11.093 18.5,11L15.5,11C15.5,11.459 15.59,11.948 15.805,12.378C15.975,12.718 16.487,13.5 17.5,13.5L17.5,10.5ZM18.5,11C18.5,10.907 18.522,10.896 18.488,10.964C18.471,10.998 18.412,11.107 18.275,11.224C18.128,11.348 17.862,11.5 17.5,11.5L17.5,8.5C16.487,8.5 15.975,9.282 15.805,9.622C15.59,10.052 15.5,10.541 15.5,11L18.5,11ZM17.5,11.5C17.138,11.5 16.872,11.348 16.725,11.224C16.588,11.107 16.529,10.998 16.512,10.964C16.478,10.896 16.5,10.907 16.5,11L19.5,11C19.5,10.541 19.41,10.052 19.195,9.622C19.025,9.282 18.513,8.5 17.5,8.5L17.5,11.5ZM17.5,12.5L17.511,12.5L17.511,9.5L17.5,9.5L17.5,12.5ZM16.011,11L16.011,11.02L19.011,11.02L19.011,11L16.011,11ZM17.511,9.52L17.5,9.52L17.5,12.52L17.511,12.52L17.511,9.52ZM19,11.02L19,11L16,11L16,11.02L19,11.02Z" fill="#000000"/>
</svg>
