<svg width="30" height="36" viewBox="0 0 30 36" fill="none" xmlns="http://www.w3.org/2000/svg" xmlns:xlink="http://www.w3.org/1999/xlink">
<path d="M5.143,2.301L5.938,1.029L5.937,1.029L5.143,2.301ZM26.9,15.891L26.106,17.163L26.106,17.163L26.9,15.891ZM26.9,20.113L26.106,18.84L26.106,18.84L26.9,20.113ZM5.143,33.702L5.937,34.974L5.938,34.974L5.143,33.702ZM4.088,34L4.114,32.5L4.088,34ZM2,31.591L3.5,31.591L3.5,31.591L2,31.591ZM3.5,4.412C3.5,3.976 3.699,3.704 3.877,3.584C3.967,3.524 4.048,3.503 4.111,3.5C4.167,3.498 4.245,3.509 4.349,3.574L5.937,1.029C4.688,0.25 3.264,0.382 2.205,1.093C1.165,1.792 0.5,3.016 0.5,4.412L3.5,4.412ZM4.348,3.574L26.106,17.163L27.695,14.618L5.938,1.029L4.348,3.574ZM26.106,17.163C26.197,17.22 26.296,17.318 26.374,17.468L29.035,16.082C28.726,15.49 28.27,14.977 27.694,14.618L26.106,17.163ZM26.374,17.468C26.453,17.619 26.5,17.804 26.5,18.002L29.5,18.002C29.5,17.336 29.343,16.674 29.035,16.082L26.374,17.468ZM26.5,18.002C26.5,18.199 26.453,18.384 26.374,18.535L29.035,19.921C29.343,19.329 29.5,18.667 29.5,18.002L26.5,18.002ZM26.374,18.535C26.296,18.685 26.197,18.784 26.106,18.84L27.694,21.385C28.27,21.026 28.726,20.514 29.035,19.921L26.374,18.535ZM26.106,18.84L4.348,32.43L5.938,34.974L27.695,21.385L26.106,18.84ZM4.349,32.43C4.263,32.483 4.183,32.501 4.114,32.5L4.061,35.499C4.729,35.511 5.377,35.324 5.937,34.974L4.349,32.43ZM4.114,32.5C4.046,32.499 3.964,32.478 3.878,32.419L2.205,34.91C2.753,35.278 3.393,35.488 4.061,35.499L4.114,32.5ZM3.878,32.419C3.789,32.36 3.693,32.259 3.619,32.111L0.938,33.458C1.229,34.037 1.659,34.543 2.205,34.91L3.878,32.419ZM3.619,32.111C3.544,31.963 3.5,31.783 3.5,31.591L0.5,31.591C0.5,32.236 0.647,32.879 0.938,33.458L3.619,32.111ZM3.5,31.591L3.5,4.412L0.5,4.412L0.5,31.591L3.5,31.591Z" fill="#000000"/>
</svg>
