<svg width="34" height="10" viewBox="0 0 34 10" fill="none" xmlns="http://www.w3.org/2000/svg" xmlns:xlink="http://www.w3.org/1999/xlink">
<path d="M5.333,5L6.833,5L5.333,5ZM2,5L0.5,5L2,5ZM3.833,5C3.833,5.6 3.697,6.1 3.534,6.393L6.156,7.85C6.619,7.018 6.833,5.991 6.833,5L3.833,5ZM3.534,6.393C3.496,6.461 3.463,6.507 3.439,6.536C3.415,6.565 3.403,6.573 3.408,6.569C3.414,6.565 3.439,6.547 3.485,6.53C3.534,6.513 3.596,6.5 3.667,6.5L3.667,9.5C4.882,9.5 5.713,8.648 6.156,7.85L3.534,6.393ZM3.667,6.5C3.738,6.5 3.8,6.513 3.848,6.53C3.894,6.547 3.92,6.565 3.925,6.569C3.931,6.573 3.919,6.565 3.894,6.536C3.87,6.507 3.837,6.461 3.799,6.393L1.177,7.85C1.62,8.648 2.451,9.5 3.667,9.5L3.667,6.5ZM3.799,6.393C3.637,6.1 3.5,5.6 3.5,5L0.5,5C0.5,5.991 0.715,7.018 1.177,7.85L3.799,6.393ZM3.5,5C3.5,4.4 3.637,3.9 3.799,3.607L1.177,2.15C0.715,2.982 0.5,4.009 0.5,5L3.5,5ZM3.799,3.607C3.837,3.539 3.87,3.493 3.894,3.464C3.919,3.435 3.931,3.427 3.925,3.431C3.92,3.435 3.894,3.453 3.848,3.47C3.8,3.487 3.738,3.5 3.667,3.5L3.667,0.5C2.451,0.5 1.62,1.352 1.177,2.15L3.799,3.607ZM3.667,3.5C3.596,3.5 3.534,3.487 3.485,3.47C3.439,3.453 3.414,3.435 3.408,3.431C3.403,3.427 3.415,3.435 3.439,3.464C3.463,3.493 3.496,3.539 3.534,3.607L6.156,2.15C5.713,1.352 4.882,0.5 3.667,0.5L3.667,3.5ZM3.534,3.607C3.697,3.9 3.833,4.4 3.833,5L6.833,5C6.833,4.009 6.619,2.982 6.156,2.15L3.534,3.607ZM17.167,5C17.167,5.6 17.03,6.1 16.867,6.393L19.49,7.85C19.952,7.018 20.167,5.991 20.167,5L17.167,5ZM16.867,6.393C16.83,6.461 16.796,6.507 16.772,6.536C16.748,6.565 16.736,6.573 16.741,6.569C16.747,6.565 16.772,6.547 16.819,6.53C16.867,6.513 16.929,6.5 17,6.5L17,9.5C18.215,9.5 19.046,8.648 19.49,7.85L16.867,6.393ZM17,6.5C17.071,6.5 17.133,6.513 17.181,6.53C17.228,6.547 17.253,6.565 17.259,6.569C17.264,6.573 17.252,6.565 17.228,6.536C17.204,6.507 17.17,6.461 17.133,6.393L14.51,7.85C14.954,8.648 15.785,9.5 17,9.5L17,6.5ZM17.133,6.393C16.97,6.1 16.833,5.6 16.833,5L13.833,5C13.833,5.991 14.048,7.018 14.51,7.85L17.133,6.393ZM16.833,5C16.833,4.4 16.97,3.9 17.133,3.607L14.51,2.15C14.048,2.982 13.833,4.009 13.833,5L16.833,5ZM17.133,3.607C17.17,3.539 17.204,3.493 17.228,3.464C17.252,3.435 17.264,3.427 17.259,3.431C17.253,3.435 17.228,3.453 17.181,3.47C17.133,3.487 17.071,3.5 17,3.5L17,0.5C15.785,0.5 14.954,1.352 14.51,2.15L17.133,3.607ZM17,3.5C16.929,3.5 16.867,3.487 16.819,3.47C16.772,3.453 16.747,3.435 16.741,3.431C16.736,3.427 16.748,3.435 16.772,3.464C16.796,3.493 16.83,3.539 16.867,3.607L19.49,2.15C19.046,1.352 18.215,0.5 17,0.5L17,3.5ZM16.867,3.607C17.03,3.9 17.167,4.4 17.167,5L20.167,5C20.167,4.009 19.952,2.982 19.49,2.15L16.867,3.607ZM30.5,5C30.5,5.6 30.363,6.1 30.201,6.393L32.823,7.85C33.285,7.018 33.5,5.991 33.5,5L30.5,5ZM30.201,6.393C30.163,6.461 30.13,6.507 30.106,6.536C30.081,6.565 30.069,6.573 30.075,6.569C30.08,6.565 30.106,6.547 30.152,6.53C30.2,6.513 30.262,6.5 30.333,6.5L30.333,9.5C31.549,9.5 32.38,8.648 32.823,7.85L30.201,6.393ZM30.333,6.5C30.404,6.5 30.466,6.513 30.515,6.53C30.561,6.547 30.586,6.565 30.592,6.569C30.597,6.573 30.585,6.565 30.561,6.536C30.537,6.507 30.504,6.461 30.466,6.393L27.844,7.85C28.287,8.648 29.118,9.5 30.333,9.5L30.333,6.5ZM30.466,6.393C30.303,6.1 30.167,5.6 30.167,5L27.167,5C27.167,5.991 27.381,7.018 27.844,7.85L30.466,6.393ZM30.167,5C30.167,4.4 30.303,3.9 30.466,3.607L27.844,2.15C27.381,2.982 27.167,4.009 27.167,5L30.167,5ZM30.466,3.607C30.504,3.539 30.537,3.493 30.561,3.464C30.585,3.435 30.597,3.427 30.592,3.431C30.586,3.435 30.561,3.453 30.515,3.47C30.466,3.487 30.404,3.5 30.333,3.5L30.333,0.5C29.118,0.5 28.287,1.352 27.844,2.15L30.466,3.607ZM30.333,3.5C30.262,3.5 30.2,3.487 30.152,3.47C30.106,3.453 30.08,3.435 30.075,3.431C30.069,3.427 30.081,3.435 30.106,3.464C30.13,3.493 30.163,3.539 30.201,3.607L32.823,2.15C32.38,1.352 31.549,0.5 30.333,0.5L30.333,3.5ZM30.201,3.607C30.363,3.9 30.5,4.4 30.5,5L33.5,5C33.5,4.009 33.285,2.982 32.823,2.15L30.201,3.607Z" fill="#000000"/>
</svg>
