<svg width="94" height="96" viewBox="0 0 94 96" fill="none" xmlns="http://www.w3.org/2000/svg" xmlns:xlink="http://www.w3.org/1999/xlink">
<path d="M83.958,68.491L93.275,68.491L93.275,77.633L0.107,77.633L0.107,68.491L9.424,68.491L9.424,36.495C9.424,16.3 26.109,-0.072 46.691,-0.072C67.273,-0.072 83.958,16.3 83.958,36.495L83.958,68.491ZM74.641,68.491L74.641,36.495C74.641,21.349 62.128,9.07 46.691,9.07C31.255,9.07 18.741,21.349 18.741,36.495L18.741,68.491L74.641,68.491ZM32.716,86.774L60.666,86.774L60.666,95.916L32.716,95.916L32.716,86.774Z" fill="#000000"/>
</svg>
