<svg width="80" height="94" viewBox="0 0 80 94" fill="none" xmlns="http://www.w3.org/2000/svg" xmlns:xlink="http://www.w3.org/1999/xlink">
<path d="M65.5,31.333L74.333,31.333C76.773,31.333 78.75,33.311 78.75,35.75L78.75,88.75C78.75,91.189 76.773,93.167 74.333,93.167L3.667,93.167C1.227,93.167 -0.75,91.189 -0.75,88.75L-0.75,35.75C-0.75,33.311 1.227,31.333 3.667,31.333L12.5,31.333L12.5,26.917C12.5,12.281 24.364,0.417 39,0.417C53.636,0.417 65.5,12.281 65.5,26.917L65.5,31.333ZM56.667,31.333L56.667,26.917C56.667,17.16 48.757,9.25 39,9.25C29.243,9.25 21.333,17.16 21.333,26.917L21.333,31.333L56.667,31.333ZM34.583,57.833L34.583,66.667L43.417,66.667L43.417,57.833L34.583,57.833ZM16.917,57.833L16.917,66.667L25.75,66.667L25.75,57.833L16.917,57.833ZM52.25,57.833L52.25,66.667L61.083,66.667L61.083,57.833L52.25,57.833Z" fill="#000000"/>
</svg>
