<svg width="102" height="98" viewBox="0 0 102 98" fill="none" xmlns="http://www.w3.org/2000/svg" xmlns:xlink="http://www.w3.org/1999/xlink">
<path d="M16.329,21.547L1.777,7.255L8.359,0.791L100.501,91.289L93.919,97.753L78.515,82.624C70.597,87.555 61.208,90.41 51.139,90.41C26.045,90.41 5.167,72.676 0.79,49.272C2.823,38.406 8.412,28.761 16.329,21.547ZM63.972,68.34L57.158,61.648C55.335,62.505 53.294,62.985 51.139,62.985C43.428,62.985 37.177,56.845 37.177,49.272C37.177,47.155 37.666,45.15 38.538,43.36L31.725,36.668C29.288,40.281 27.869,44.614 27.869,49.272C27.869,61.894 38.288,72.127 51.139,72.127C55.881,72.127 60.293,70.733 63.972,68.34ZM32.403,11.608C38.206,9.366 44.526,8.134 51.139,8.134C76.233,8.134 97.11,25.868 101.487,49.272C100.034,57.041 96.763,64.185 92.123,70.263L74.16,52.62C74.324,51.528 74.408,50.409 74.408,49.272C74.408,36.65 63.99,26.418 51.139,26.418C49.981,26.418 48.842,26.501 47.73,26.661L32.403,11.608Z" fill="#000000"/>
</svg>
