<svg width="24" height="24" viewBox="0 0 24 24" fill="none" xmlns="http://www.w3.org/2000/svg" xmlns:xlink="http://www.w3.org/1999/xlink">
<path d="M20.939,23.061C21.525,23.646 22.475,23.646 23.061,23.061C23.646,22.475 23.646,21.525 23.061,20.939L20.939,23.061ZM18.667,10.333L20.167,10.333L18.667,10.333ZM10.333,2L10.333,0.5L10.333,2ZM4.441,4.441L3.38,3.38L3.38,3.38L4.441,4.441ZM2,10.333L0.5,10.333L2,10.333ZM10.333,18.667L10.333,20.167L10.333,18.667ZM23.061,20.939L17.286,15.165L15.165,17.286L20.939,23.061L23.061,20.939ZM17.286,17.286C19.131,15.442 20.167,12.941 20.167,10.333L17.167,10.333C17.167,12.146 16.447,13.884 15.165,15.165L17.286,17.286ZM20.167,10.333C20.167,7.725 19.131,5.224 17.286,3.38L15.165,5.501C16.447,6.783 17.167,8.521 17.167,10.333L20.167,10.333ZM17.286,3.38C15.442,1.536 12.941,0.5 10.333,0.5L10.333,3.5C12.146,3.5 13.884,4.22 15.165,5.501L17.286,3.38ZM10.333,0.5C7.725,0.5 5.224,1.536 3.38,3.38L5.501,5.501C6.783,4.22 8.521,3.5 10.333,3.5L10.333,0.5ZM3.38,3.38C1.536,5.224 0.5,7.725 0.5,10.333L3.5,10.333C3.5,8.521 4.22,6.783 5.501,5.501L3.38,3.38ZM0.5,10.333C0.5,12.941 1.536,15.442 3.38,17.286L5.501,15.165C4.22,13.884 3.5,12.146 3.5,10.333L0.5,10.333ZM3.38,17.286C5.224,19.131 7.725,20.167 10.333,20.167L10.333,17.167C8.521,17.167 6.783,16.447 5.501,15.165L3.38,17.286ZM10.333,20.167C12.941,20.167 15.442,19.131 17.286,17.286L15.165,15.165C13.884,16.447 12.146,17.167 10.333,17.167L10.333,20.167Z" fill="#757A7A"/>
</svg>
