<svg width="66" height="54" viewBox="0 0 66 54" fill="none" xmlns="http://www.w3.org/2000/svg" xmlns:xlink="http://www.w3.org/1999/xlink">
<path d="M34.25,10.25C34.25,9.422 33.578,8.75 32.75,8.75C31.922,8.75 31.25,9.422 31.25,10.25L34.25,10.25ZM32.75,26.75L31.25,26.75C31.25,27.578 31.922,28.25 32.75,28.25L32.75,26.75ZM48.125,28.25C48.953,28.25 49.625,27.578 49.625,26.75C49.625,25.922 48.953,25.25 48.125,25.25L48.125,28.25ZM32.75,2L32.75,3.5L32.75,2ZM31.25,10.25L31.25,26.75L34.25,26.75L34.25,10.25L31.25,10.25ZM32.75,28.25L48.125,28.25L48.125,25.25L32.75,25.25L32.75,28.25ZM62,26.75C62,29.752 61.266,32.736 59.826,35.535L62.493,36.908C64.143,33.701 65,30.248 65,26.75L62,26.75ZM59.826,35.535C58.384,38.336 56.259,40.904 53.553,43.082L55.434,45.419C58.439,43.001 60.844,40.112 62.493,36.908L59.826,35.535ZM53.553,43.082C50.846,45.261 47.617,47.002 44.043,48.193L44.992,51.039C48.88,49.743 52.43,47.837 55.434,45.419L53.553,43.082ZM44.043,48.193C40.469,49.384 36.631,50 32.75,50L32.75,53C36.945,53 41.104,52.335 44.992,51.039L44.043,48.193ZM32.75,50C28.869,50 25.031,49.384 21.457,48.193L20.508,51.039C24.396,52.335 28.555,53 32.75,53L32.75,50ZM21.457,48.193C17.883,47.002 14.654,45.261 11.947,43.082L10.066,45.419C13.07,47.837 16.62,49.743 20.508,51.039L21.457,48.193ZM11.947,43.082C9.241,40.904 7.116,38.336 5.674,35.535L3.007,36.908C4.656,40.112 7.061,43.001 10.066,45.419L11.947,43.082ZM5.674,35.535C4.234,32.736 3.5,29.752 3.5,26.75L0.5,26.75C0.5,30.248 1.357,33.701 3.007,36.908L5.674,35.535ZM3.5,26.75C3.5,20.702 6.483,14.816 11.947,10.418L10.066,8.081C3.997,12.966 0.5,19.67 0.5,26.75L3.5,26.75ZM11.947,10.418C17.42,6.013 24.9,3.5 32.75,3.5L32.75,0.5C24.289,0.5 16.127,3.202 10.066,8.081L11.947,10.418ZM32.75,3.5C40.6,3.5 48.08,6.013 53.553,10.418L55.434,8.081C49.373,3.202 41.211,0.5 32.75,0.5L32.75,3.5ZM53.553,10.418C59.017,14.816 62,20.702 62,26.75L65,26.75C65,19.67 61.503,12.966 55.434,8.081L53.553,10.418Z" fill="#000000"/>
</svg>
