<svg width="24" height="24" viewBox="0 0 24 24" fill="none" xmlns="http://www.w3.org/2000/svg" xmlns:xlink="http://www.w3.org/1999/xlink">
<path d="M12,5.313L10.611,5.879C10.841,6.444 11.39,6.813 12,6.813C12.61,6.813 13.159,6.444 13.389,5.879L12,5.313ZM12,22L11.248,23.298C11.713,23.567 12.287,23.567 12.752,23.298L12,22ZM23.5,7.455C23.5,3.68 20.561,0.5 16.791,0.5L16.791,3.5C18.775,3.5 20.5,5.205 20.5,7.455L23.5,7.455ZM16.791,0.5C13.979,0.5 11.615,2.284 10.611,4.746L13.389,5.879C13.974,4.446 15.303,3.5 16.791,3.5L16.791,0.5ZM13.389,4.746C12.385,2.284 10.021,0.5 7.208,0.5L7.208,3.5C8.697,3.5 10.027,4.446 10.611,5.879L13.389,4.746ZM7.208,0.5C3.44,0.5 0.5,3.68 0.5,7.455L3.5,7.455C3.5,5.205 5.226,3.5 7.208,3.5L7.208,0.5ZM0.5,7.455C0.5,12.409 3.32,16.406 5.93,19.061C7.253,20.406 8.571,21.457 9.557,22.172C10.051,22.531 10.466,22.807 10.76,22.996C10.907,23.091 11.025,23.164 11.108,23.214C11.149,23.239 11.182,23.259 11.206,23.273C11.218,23.28 11.227,23.286 11.234,23.29C11.238,23.292 11.241,23.294 11.243,23.295C11.244,23.296 11.245,23.296 11.246,23.297C11.246,23.297 11.247,23.297 11.247,23.297C11.248,23.298 11.248,23.298 12,22C12.752,20.702 12.752,20.702 12.753,20.703C12.753,20.703 12.753,20.703 12.753,20.703C12.753,20.703 12.754,20.703 12.754,20.703C12.753,20.703 12.753,20.703 12.751,20.702C12.749,20.7 12.744,20.697 12.737,20.693C12.723,20.685 12.699,20.671 12.668,20.651C12.604,20.613 12.507,20.553 12.381,20.472C12.128,20.31 11.761,20.065 11.318,19.744C10.429,19.099 9.247,18.155 8.07,16.957C5.68,14.527 3.5,11.251 3.5,7.455L0.5,7.455ZM12,22C12.752,23.298 12.752,23.298 12.753,23.297C12.753,23.297 12.754,23.297 12.754,23.297C12.755,23.296 12.756,23.296 12.757,23.295C12.759,23.294 12.762,23.292 12.766,23.29C12.773,23.286 12.782,23.28 12.794,23.273C12.818,23.259 12.851,23.239 12.892,23.214C12.975,23.164 13.093,23.091 13.24,22.996C13.534,22.807 13.949,22.531 14.443,22.172C15.429,21.457 16.747,20.406 18.07,19.061C20.68,16.406 23.5,12.409 23.5,7.455L20.5,7.455C20.5,11.251 18.32,14.527 15.93,16.957C14.753,18.155 13.571,19.099 12.682,19.744C12.239,20.065 11.872,20.31 11.619,20.472C11.493,20.553 11.396,20.613 11.332,20.651C11.301,20.671 11.277,20.685 11.263,20.693C11.256,20.697 11.251,20.7 11.249,20.702C11.247,20.703 11.247,20.703 11.246,20.703C11.246,20.703 11.247,20.703 11.247,20.703C11.247,20.703 11.247,20.703 11.247,20.703C11.248,20.702 11.248,20.702 12,22Z" fill="#000000"/>
</svg>
