<svg width="56" height="56" viewBox="0 0 56 56" fill="none" xmlns="http://www.w3.org/2000/svg" xmlns:xlink="http://www.w3.org/1999/xlink">
<path d="M30,19.333C30,18.229 29.105,17.333 28,17.333C26.895,17.333 26,18.229 26,19.333L30,19.333ZM26,36.667C26,37.771 26.895,38.667 28,38.667C29.105,38.667 30,37.771 30,36.667L26,36.667ZM36.667,30C37.771,30 38.667,29.105 38.667,28C38.667,26.895 37.771,26 36.667,26L36.667,30ZM19.333,26C18.229,26 17.333,26.895 17.333,28C17.333,29.105 18.229,30 19.333,30L19.333,26ZM28,2L28,4L28,2ZM26,19.333L26,36.667L30,36.667L30,19.333L26,19.333ZM36.667,26L19.333,26L19.333,30L36.667,30L36.667,26ZM52,28C52,31.152 51.379,34.273 50.173,37.184L53.869,38.715C55.276,35.318 56,31.677 56,28L52,28ZM50.173,37.184C48.967,40.096 47.199,42.742 44.971,44.971L47.799,47.799C50.399,45.199 52.461,42.112 53.869,38.715L50.173,37.184ZM44.971,44.971C42.742,47.199 40.096,48.967 37.184,50.173L38.715,53.869C42.112,52.461 45.199,50.399 47.799,47.799L44.971,44.971ZM37.184,50.173C34.273,51.379 31.152,52 28,52L28,56C31.677,56 35.318,55.276 38.715,53.869L37.184,50.173ZM28,52C24.848,52 21.727,51.379 18.816,50.173L17.285,53.869C20.682,55.276 24.323,56 28,56L28,52ZM18.816,50.173C15.904,48.967 13.258,47.199 11.029,44.971L8.201,47.799C10.801,50.399 13.888,52.461 17.285,53.869L18.816,50.173ZM11.029,44.971C8.801,42.742 7.033,40.096 5.827,37.184L2.131,38.715C3.539,42.112 5.601,45.199 8.201,47.799L11.029,44.971ZM5.827,37.184C4.621,34.273 4,31.152 4,28L0,28C0,31.677 0.724,35.318 2.131,38.715L5.827,37.184ZM4,28C4,21.635 6.529,15.53 11.029,11.029L8.201,8.201C2.95,13.452 0,20.574 0,28L4,28ZM11.029,11.029C15.53,6.529 21.635,4 28,4L28,0C20.574,0 13.452,2.95 8.201,8.201L11.029,11.029ZM28,4C34.365,4 40.47,6.529 44.971,11.029L47.799,8.201C42.548,2.95 35.426,0 28,0L28,4ZM44.971,11.029C49.471,15.53 52,21.635 52,28L56,28C56,20.574 53.05,13.452 47.799,8.201L44.971,11.029Z" fill="#757A7A"/>
</svg>
