<svg width="96" height="86" viewBox="0 0 96 86" fill="none" xmlns="http://www.w3.org/2000/svg" xmlns:xlink="http://www.w3.org/1999/xlink">
<path d="M56.818,67.717L56.818,76.858L66.155,81.429L66.155,86L28.804,86L28.787,81.446L38.142,76.858L38.142,67.717L5.421,67.717C2.864,67.717 0.79,65.665 0.79,63.111L0.79,3.759C0.79,1.216 2.916,-0.846 5.421,-0.846L89.538,-0.846C92.096,-0.846 94.169,1.206 94.169,3.759L94.169,63.111C94.169,65.655 92.043,67.717 89.538,67.717L56.818,67.717ZM10.128,49.433L10.128,58.575L84.831,58.575L84.831,49.433L10.128,49.433Z" fill="#000000"/>
</svg>
