<svg width="90" height="92" viewBox="0 0 90 92" fill="none" xmlns="http://www.w3.org/2000/svg" xmlns:xlink="http://www.w3.org/1999/xlink">
<path d="M4.59,91.417C2.02,91.417 -0.064,89.371 -0.064,86.846L-0.064,4.571C-0.064,2.046 2.02,0 4.59,0L69.744,0C72.314,0 74.398,2.046 74.398,4.571L74.398,18.283L65.09,18.283L65.09,9.142L9.244,9.142L9.244,82.275L65.09,82.275L65.09,73.134L74.398,73.134L74.398,86.846C74.398,89.371 72.314,91.417 69.744,91.417L4.59,91.417ZM65.09,63.992L65.09,50.279L32.513,50.279L32.513,41.138L65.09,41.138L65.09,27.425L88.36,45.709L65.09,63.992Z" fill="#000000"/>
</svg>
