<svg width="106" height="108" viewBox="0 0 106 108" fill="none" xmlns="http://www.w3.org/2000/svg" xmlns:xlink="http://www.w3.org/1999/xlink">
<path d="M53,106.766C23.729,106.766 0,83.037 0,53.766C0,24.495 23.729,0.766 53,0.766C82.271,0.766 106,24.495 106,53.766C106,83.037 82.271,106.766 53,106.766ZM47.7,69.666L47.7,80.266L58.3,80.266L58.3,69.666L47.7,69.666ZM58.3,60.948C65.962,58.668 71.55,51.569 71.55,43.166C71.55,32.921 63.245,24.616 53,24.616C44.001,24.616 36.498,31.025 34.807,39.528L45.203,41.607C45.928,37.963 49.143,35.216 53,35.216C57.391,35.216 60.95,38.776 60.95,43.166C60.95,47.557 57.391,51.116 53,51.116C50.073,51.116 47.7,53.489 47.7,56.416L47.7,64.366L58.3,64.366L58.3,60.948Z" fill="#000000"/>
</svg>
