<svg width="90" height="88" viewBox="0 0 90 88" fill="none" xmlns="http://www.w3.org/2000/svg" xmlns:xlink="http://www.w3.org/1999/xlink">
<path d="M21.399,41.696C9.822,41.696 0.436,32.487 0.436,21.127C0.436,9.767 9.822,0.558 21.399,0.558C32.976,0.558 42.362,9.767 42.362,21.127C42.362,32.487 32.976,41.696 21.399,41.696ZM21.399,87.404C9.822,87.404 0.436,78.195 0.436,66.835C0.436,55.475 9.822,46.267 21.399,46.267C32.976,46.267 42.362,55.475 42.362,66.835C42.362,78.195 32.976,87.404 21.399,87.404ZM67.983,41.696C56.405,41.696 47.02,32.487 47.02,21.127C47.02,9.767 56.405,0.558 67.983,0.558C79.56,0.558 88.946,9.767 88.946,21.127C88.946,32.487 79.56,41.696 67.983,41.696ZM67.983,87.404C56.405,87.404 47.02,78.195 47.02,66.835C47.02,55.475 56.405,46.267 67.983,46.267C79.56,46.267 88.946,55.475 88.946,66.835C88.946,78.195 79.56,87.404 67.983,87.404ZM21.399,32.554C27.831,32.554 33.045,27.438 33.045,21.127C33.045,14.816 27.831,9.7 21.399,9.7C14.967,9.7 9.753,14.816 9.753,21.127C9.753,27.438 14.967,32.554 21.399,32.554ZM21.399,78.263C27.831,78.263 33.045,73.146 33.045,66.835C33.045,60.524 27.831,55.408 21.399,55.408C14.967,55.408 9.753,60.524 9.753,66.835C9.753,73.146 14.967,78.263 21.399,78.263ZM67.983,32.554C74.415,32.554 79.629,27.438 79.629,21.127C79.629,14.816 74.415,9.7 67.983,9.7C61.551,9.7 56.337,14.816 56.337,21.127C56.337,27.438 61.551,32.554 67.983,32.554ZM67.983,78.263C74.415,78.263 79.629,73.146 79.629,66.835C79.629,60.524 74.415,55.408 67.983,55.408C61.551,55.408 56.337,60.524 56.337,66.835C56.337,73.146 61.551,78.263 67.983,78.263Z" fill="#000000"/>
</svg>
